<?xml version="1.0" standalone="no"?>
<!DOCTYPE svg PUBLIC "-//W3C//DTD SVG 20010904//EN"
 "http://www.w3.org/TR/2001/REC-SVG-20010904/DTD/svg10.dtd">
<svg version="1.0" xmlns="http://www.w3.org/2000/svg"
 width="300.000000pt" height="95.000000pt" viewBox="0 0 300.000000 95.000000"
 preserveAspectRatio="xMidYMid meet">
<metadata>
Created by potrace 1.10, written by Peter Selinger 2001-2011
</metadata>
<g transform="translate(0.000000,95.000000) scale(0.100000,-0.100000)"
fill="#000000" stroke="none">
<path d="M593 865 c-186 -34 -301 -169 -291 -340 6 -87 29 -135 97 -198 59
-56 89 -64 37 -10 -85 88 -108 202 -66 317 47 125 172 194 405 222 l60 8 -45
7 c-64 11 -114 9 -197 -6z"/>
<path d="M760 784 c-188 -40 -323 -174 -336 -330 l-5 -59 24 66 c76 211 243
300 601 320 16 1 14 3 -9 9 -49 13 -206 9 -275 -6z"/>
<path d="M573 559 c4 -13 17 -68 29 -121 32 -138 60 -133 84 15 4 20 10 39 13
42 4 2 15 -32 25 -76 14 -61 22 -79 35 -79 13 0 23 24 44 113 32 130 31 127
13 127 -18 0 -21 -10 -37 -103 -7 -43 -16 -77 -20 -77 -3 0 -15 38 -24 85 -17
79 -28 105 -41 92 -3 -3 -15 -45 -26 -93 -23 -96 -23 -96 -48 16 -12 57 -21
76 -35 78 -14 3 -17 0 -12 -19z"/>
<path d="M1530 461 c0 -114 1 -121 20 -121 13 0 18 5 13 16 -6 15 15 64 27 64
4 0 15 -18 25 -40 12 -26 25 -40 37 -40 24 0 23 2 -12 58 l-29 47 31 32 c28
29 29 33 12 33 -10 0 -36 -19 -57 -42 l-37 -43 2 75 c1 63 -1 76 -15 78 -15 3
-17 -10 -17 -117z"/>
<path d="M1811 464 c-23 -63 -41 -117 -41 -120 0 -2 9 -4 19 -4 13 0 21 8 23
23 3 19 9 22 53 22 44 0 50 -3 53 -22 2 -15 10 -23 24 -23 12 0 18 5 16 13 -3
6 -22 60 -43 120 -21 59 -43 107 -50 107 -7 0 -31 -51 -54 -116z m83 -21 c7
-21 4 -23 -29 -23 -28 0 -36 4 -32 14 3 8 11 33 18 56 l13 42 12 -33 c6 -19
14 -44 18 -56z"/>
<path d="M1990 461 c0 -116 1 -121 21 -121 18 0 20 5 17 60 -3 67 10 92 40 74
12 -8 18 -28 20 -73 2 -45 7 -61 17 -61 22 0 21 133 -1 154 -17 18 -50 21 -59
6 -14 -23 -25 -7 -23 32 2 34 -1 43 -14 46 -16 3 -18 -8 -18 -117z"/>
<path d="M2709 573 c-1 -5 0 -26 1 -48 1 -32 -1 -38 -11 -27 -19 18 -53 15
-72 -6 -22 -25 -23 -115 -1 -136 18 -19 55 -21 72 -4 9 9 12 9 12 0 0 -7 7
-12 15 -12 13 0 15 20 15 120 0 100 -2 120 -15 120 -8 0 -15 -3 -16 -7z m-11
-105 c13 -13 16 -56 6 -82 -8 -21 -50 -21 -58 0 -16 42 0 94 29 94 6 0 16 -5
23 -12z"/>
<path d="M247 516 c-32 -93 -5 -204 68 -285 60 -66 176 -127 298 -155 49 -11
28 9 -34 33 -82 31 -200 112 -245 166 -53 66 -74 128 -69 214 2 39 2 71 0 71
-2 0 -10 -20 -18 -44z"/>
<path d="M866 499 c-15 -9 -16 -13 -5 -20 8 -4 24 -6 37 -2 22 5 52 -11 52
-28 0 -5 -18 -9 -40 -9 -31 0 -43 -5 -56 -25 -15 -23 -15 -27 0 -50 14 -21 23
-24 72 -23 l56 2 -4 69 c-3 53 -8 72 -23 83 -22 17 -63 18 -89 3z m82 -106
c-2 -12 -14 -19 -36 -21 -27 -3 -32 0 -32 17 0 17 6 21 36 21 28 0 35 -3 32
-17z"/>
<path d="M1038 499 c-21 -12 -24 -64 -6 -75 7 -4 28 -10 48 -14 22 -3 35 -11
35 -20 0 -18 -51 -26 -69 -11 -10 8 -17 7 -25 -3 -16 -19 14 -36 63 -36 40 0
66 21 66 55 0 28 -12 37 -60 45 -22 3 -35 11 -35 20 0 18 41 26 59 11 10 -8
17 -7 25 3 10 12 8 17 -8 25 -25 14 -70 14 -93 0z"/>
<path d="M1208 493 c-33 -38 -34 -106 -1 -138 26 -26 116 -14 99 13 -4 6 -21
8 -40 5 -28 -4 -36 -1 -45 16 -11 20 -10 21 45 21 l57 0 -7 32 c-3 17 -14 40
-23 50 -21 23 -65 23 -85 1z m72 -33 c10 -18 8 -20 -30 -20 -38 0 -40 2 -30
20 6 11 19 20 30 20 11 0 24 -9 30 -20z"/>
<path d="M1377 492 c-24 -26 -23 -113 1 -135 20 -19 68 -22 92 -7 21 13 4 25
-38 25 -27 0 -37 5 -40 18 -3 14 4 17 47 17 47 0 51 2 51 24 0 60 -76 99 -113
58z m71 -24 c20 -20 14 -28 -23 -28 -22 0 -35 5 -35 13 0 28 36 37 58 15z"/>
<path d="M2170 425 c0 -74 2 -85 18 -85 14 0 17 10 17 61 0 47 4 64 17 72 30
19 48 -8 48 -74 0 -46 3 -59 15 -59 12 0 15 13 15 59 0 61 16 89 45 77 11 -4
15 -22 15 -71 0 -58 2 -65 20 -65 18 0 20 7 20 63 0 71 -18 107 -54 107 -13 0
-29 -7 -36 -15 -11 -14 -15 -14 -32 2 -16 14 -24 15 -49 6 -16 -6 -29 -7 -29
-2 0 5 -7 9 -15 9 -12 0 -15 -16 -15 -85z"/>
<path d="M2456 499 c-15 -9 -16 -13 -5 -20 8 -4 24 -6 37 -2 22 5 52 -11 52
-28 0 -5 -17 -9 -38 -9 -45 0 -62 -14 -62 -51 0 -37 19 -49 78 -48 l52 2 0 63
c0 51 -4 68 -20 84 -22 22 -64 26 -94 9z m82 -106 c-2 -12 -14 -19 -36 -21
-27 -3 -32 0 -32 17 0 17 6 21 36 21 28 0 35 -3 32 -17z"/>
<path d="M586 255 c-21 -49 -20 -58 4 -43 17 11 22 10 30 -2 15 -24 21 -5 9
31 -18 52 -26 55 -43 14z"/>
<path d="M764 276 c-3 -8 -4 -27 -2 -43 2 -22 8 -28 27 -28 13 0 26 6 29 13 2
8 -5 11 -20 10 -17 -2 -23 2 -23 17 0 15 6 19 24 17 20 -2 22 0 11 13 -16 19
-39 19 -46 1z"/>
<path d="M990 275 c0 -8 -7 -15 -15 -15 -10 0 -15 -10 -15 -30 0 -25 4 -30 25
-30 23 0 25 4 25 45 0 25 -4 45 -10 45 -5 0 -10 -7 -10 -15z"/>
<path d="M1445 278 c-3 -8 -7 -28 -8 -44 -2 -26 2 -29 28 -32 26 -2 30 1 31
23 2 30 -12 33 -21 5 -7 -21 -25 -28 -25 -10 0 6 5 10 10 10 7 0 7 7 -1 21
-10 19 -9 20 11 14 16 -5 21 -3 18 6 -6 19 -37 24 -43 7z"/>
<path d="M1540 245 c0 -26 5 -45 11 -45 7 0 9 10 7 25 -3 13 -1 22 3 19 10 -6
12 8 3 30 -12 31 -24 16 -24 -29z"/>
<path d="M1588 259 c-22 -37 -23 -62 -3 -35 15 19 15 19 15 -2 0 -43 15 -21
16 23 0 25 -2 45 -5 45 -3 0 -14 -14 -23 -31z"/>
<path d="M1750 245 c0 -25 5 -45 10 -45 6 0 10 12 10 27 0 29 15 22 23 -12 3
-13 5 -9 6 13 1 22 -4 32 -14 32 -8 0 -15 7 -15 15 0 8 -4 15 -10 15 -5 0 -10
-20 -10 -45z"/>
<path d="M2092 248 c2 -23 8 -43 13 -45 6 -2 9 15 7 42 -2 25 -8 45 -14 45 -5
0 -8 -19 -6 -42z"/>
<path d="M2167 283 c-14 -14 -6 -41 14 -46 12 -3 18 -10 15 -15 -3 -6 -16 -8
-28 -4 -14 3 -19 2 -14 -6 10 -16 53 -15 59 1 7 17 -3 31 -28 42 -18 8 -17 9
8 13 15 2 25 8 22 13 -7 10 -38 12 -48 2z"/>
<path d="M2580 245 c0 -44 1 -45 32 -45 34 0 29 14 -7 23 -18 4 -18 5 5 15 24
10 24 11 3 11 -31 1 -29 21 2 21 14 0 25 5 25 10 0 6 -13 10 -30 10 -29 0 -30
-2 -30 -45z"/>
<path d="M1052 243 c4 -45 24 -55 21 -11 -2 48 -2 48 -14 48 -6 0 -9 -16 -7
-37z"/>
<path d="M2708 268 c-2 -6 -2 -24 0 -40 3 -22 10 -28 28 -28 13 0 24 5 24 11
0 6 -7 8 -15 5 -10 -3 -18 1 -22 11 -4 9 -2 18 5 21 6 2 8 10 5 18 -6 17 -20
18 -25 2z"/>
<path d="M832 233 c2 -20 9 -28 23 -28 14 0 21 8 23 28 3 23 0 27 -23 27 -23
0 -26 -4 -23 -27z"/>
<path d="M900 246 c0 -8 -3 -21 -6 -30 -3 -9 -1 -16 5 -16 6 0 11 11 11 25 0
34 18 32 23 -2 4 -26 4 -26 6 5 1 26 -3 32 -19 32 -11 0 -20 -6 -20 -14z"/>
<path d="M1020 230 c0 -16 5 -30 10 -30 6 0 10 14 10 30 0 17 -4 30 -10 30 -5
0 -10 -13 -10 -30z"/>
<path d="M1118 248 c-9 -26 4 -49 26 -46 30 4 30 52 0 56 -12 2 -24 -3 -26
-10z"/>
<path d="M1180 230 c0 -16 5 -30 10 -30 6 0 10 11 10 25 0 34 18 32 23 -2 4
-26 4 -26 6 5 1 28 -2 32 -24 32 -21 0 -25 -5 -25 -30z"/>
<path d="M1270 231 c0 -17 5 -31 10 -31 6 0 10 11 10 25 0 14 5 25 10 25 6 0
10 -11 10 -25 0 -14 4 -25 9 -25 5 0 8 12 7 28 -2 21 -9 28 -30 30 -23 3 -26
0 -26 -27z"/>
<path d="M1340 235 c0 -15 7 -28 17 -32 15 -6 15 -7 -3 -15 -16 -6 -15 -7 6
-5 21 2 25 8 28 40 3 34 1 37 -22 37 -21 0 -26 -5 -26 -25z"/>
<path d="M1634 245 c-4 -8 -4 -22 0 -30 6 -17 46 -21 46 -4 0 6 -7 9 -15 6 -8
-4 -17 -2 -20 3 -4 6 3 10 14 10 12 0 21 7 21 15 0 8 -9 15 -20 15 -11 0 -23
-7 -26 -15z"/>
<path d="M1695 250 c-11 -18 6 -50 26 -50 10 0 19 5 19 10 0 6 -7 10 -15 10
-21 0 -19 28 3 33 13 4 12 5 -5 6 -12 0 -25 -4 -28 -9z"/>
<path d="M1834 251 c19 -7 19 -8 -3 -14 -28 -7 -23 -31 7 -35 19 -3 22 1 22
27 0 26 -4 31 -22 30 -21 0 -22 -1 -4 -8z"/>
<path d="M1880 230 c0 -16 5 -30 11 -30 6 0 8 8 4 19 -3 11 -1 22 5 26 6 4 10
-4 10 -19 0 -14 5 -26 10 -26 6 0 10 14 10 30 0 25 -4 30 -25 30 -21 0 -25 -5
-25 -30z"/>
<path d="M1940 230 c0 -16 5 -30 10 -30 6 0 10 14 10 30 0 17 -4 30 -10 30 -5
0 -10 -13 -10 -30z"/>
<path d="M1974 245 c-9 -23 3 -45 26 -45 11 0 20 5 20 10 0 6 -9 10 -20 10
-27 0 -25 18 3 30 l22 9 -23 0 c-12 1 -25 -6 -28 -14z"/>
<path d="M2045 251 c17 -8 18 -10 3 -10 -11 -1 -18 -9 -18 -21 0 -15 7 -20 26
-20 22 0 25 4 22 28 -2 21 -9 28 -28 29 -23 2 -23 2 -5 -6z"/>
<path d="M2232 233 c3 -27 38 -48 38 -23 0 6 -4 9 -9 5 -5 -3 -12 -1 -16 5 -3
6 3 10 15 10 28 0 21 24 -9 28 -19 3 -22 0 -19 -25z"/>
<path d="M2290 230 c0 -16 5 -30 10 -30 6 0 10 11 10 25 0 15 6 25 15 25 8 0
17 -11 21 -25 8 -32 18 -32 32 0 15 32 15 35 2 35 -5 0 -10 -8 -10 -17 -1 -17
-1 -17 -11 0 -6 10 -22 17 -39 17 -27 0 -30 -3 -30 -30z"/>
<path d="M2432 233 c3 -26 38 -48 38 -24 0 6 -7 11 -15 11 -21 0 -19 28 3 33
12 3 11 5 -6 6 -20 1 -23 -3 -20 -26z"/>
<path d="M2486 245 c-8 -23 4 -45 25 -45 24 0 25 17 2 23 -14 4 -13 5 4 6 27
1 20 31 -7 31 -10 0 -20 -7 -24 -15z"/>
<path d="M2650 245 c0 -8 7 -15 15 -15 8 0 15 -4 15 -10 0 -5 -7 -7 -15 -4 -8
4 -15 1 -15 -6 0 -15 42 -9 48 8 2 8 -6 16 -19 19 -22 6 -22 7 -3 14 18 7 17
8 -3 8 -14 1 -23 -5 -23 -14z"/>
</g>
</svg>
